<?xml version="1.0" encoding="UTF-8"?>
<svg id="Calque_2" data-name="Calque 2" xmlns="http://www.w3.org/2000/svg" viewBox="0 0 255.31 260.61">
  <defs>
    <style>
      .cls-1 {
        opacity: .85;
      }

      .cls-2, .cls-3 {
        stroke-width: 0px;
      }

      .cls-4 {
        fill: none;
        stroke: #000;
        stroke-miterlimit: 10;
        stroke-width: 8px;
      }

      .cls-5 {
        opacity: .99;
      }

      .cls-3 {
        fill: #21f3f3;
      }
    </style>
  </defs>
  <g id="Calque_1-2" data-name="Calque 1">
    <g id="Calque_1-2" data-name="Calque 1-2" class="cls-5">
      <g>
        <g>
          <path class="cls-2" d="m62.22,94.64c0,7.02-2.19,12.39-6.59,16.11-4.39,3.72-10.63,5.58-18.72,5.58h-5.53v-11.34h4.14c4.26,0,7.44-.84,9.55-2.52,2.11-1.68,3.17-4.13,3.17-7.35s-.89-5.64-2.66-7.19c-1.77-1.54-4.55-2.32-8.32-2.32h-5.88v-11.34h6.6c7.92,0,13.93,1.7,18.05,5.11,4.12,3.41,6.18,8.49,6.18,15.24Z"/>
          <path class="cls-2" d="m195.1,186.81c0,10.8-2.68,19.11-8.04,24.91s-13.04,8.7-23.03,8.7-17.67-2.9-23.03-8.7-8.04-14.13-8.04-25,2.69-19.16,8.06-24.88,13.07-8.59,23.1-8.59,17.7,2.89,23.01,8.66,7.97,14.08,7.97,24.91Zm-47.63,0c0,7.29,1.38,12.78,4.15,16.47,2.77,3.69,6.9,5.54,12.41,5.54,11.04,0,16.56-7.34,16.56-22s-5.49-22.05-16.47-22.05c-5.5,0-9.66,1.85-12.46,5.56-2.8,3.71-4.2,9.2-4.2,16.49h0Z"/>
          <path class="cls-2" d="m100.24,111.11c3.87-1.7,6.86-4.04,8.97-7.03,2.11-2.99,3.17-6.4,3.17-10.24,0-6.58-2.13-11.48-6.38-14.71-4.26-3.23-10.82-4.84-19.69-4.84h-5.11.46v11.34h-.06,3.74c4.47,0,7.76.65,9.89,1.97,2.13,1.31,3.19,3.51,3.19,6.6s-1.04,5.42-3.13,6.87c-2.08,1.46-5.31,2.19-9.69,2.19h-4.01.06v11.25h6.85l15.58,25.04h15.35c-2.98-4.29-9.37-13.76-19.19-28.43h0Z"/>
          <g>
            <rect class="cls-2" x="157.27" y="97.24" width="13.84" height="42.31"/>
            <polygon class="cls-2" points="188.83 74.29 188.83 85.8 171.11 85.8 171.11 85.81 157.27 85.81 157.27 85.8 139.55 85.8 139.55 74.29 188.83 74.29"/>
          </g>
          <g>
            <rect class="cls-2" x="31.38" y="182.9" width="26.05" height="11.29"/>
            <rect class="cls-2" x="31.38" y="154.73" width="36.69" height="11.34"/>
          </g>
          <g>
            <rect class="cls-2" x="81.38" y="154.73" width="13.84" height="42.6"/>
            <path class="cls-2" d="m121.69,209.02v11.43h-40.3c.09-3.74.19-7.49.28-11.23,13.34-.06,26.68-.13,40.03-.2Z"/>
          </g>
        </g>
        <rect class="cls-4" x="4" y="38.13" width="218.48" height="218.48"/>
      </g>
    </g>
    <g>
      <g class="cls-1">
        <g>
          <path class="cls-3" d="m245.51,95.7c-.41-.17-.81-.35-1.22-.53.17.17.32.4.45.71.21.26.47,0,.77-.19Z"/>
          <path class="cls-3" d="m243.17,94.68c-.07-.03-.15-.07-.22-.1-.08.01-.16.03-.23.05.15,0,.3.02.45.04Z"/>
          <path class="cls-3" d="m240.88,94.22c.35.22.74.31,1.12.35-.27-.22-.64-.35-1.12-.35Z"/>
          <path class="cls-3" d="m242.48,95.19c-.06-.25-.05-.48.23-.56,0,0,0,0,.01,0-.24-.02-.48-.03-.72-.06.2.16.36.38.48.61Z"/>
          <path class="cls-3" d="m242.48,95.19c.06.24.19.5.22.64-.05-.22-.13-.44-.22-.64Z"/>
          <path class="cls-3" d="m240.17,99.76c-.27.07.28-1.26-.27-1.12-1.15,0-2.24.29-3.19-.06-.54.14-.67-1.61-1.21-1.46-1.16,0-4.42.86-2.86,1.34,2.37.65,4.01.84,6.16,1.35,1.88.08,3.73.03,5.62.17.5.11.91.38,1.33.64-.51-.43-1.04-.86-1.64-1.31-.74-.7-2.45.64-3.94.44Z"/>
          <path class="cls-3" d="m254.37,99.9c-.27.07-.82.22-.82.22-.61-1.33-1.76-1.32-2.91-1.32.06.28.13.56.2.84.61.14.81-.22.41-.7.88,1.26,1.94,1.79,3.14,2.08.06-.39.23-.81-.02-1.12Z"/>
          <path class="cls-3" d="m255.1,101.15c-.24-.04-.48-.08-.71-.14,0,.04-.01.08-.02.13.25.02.5.03.74.05,0-.01,0-.03-.01-.04Z"/>
          <path class="cls-3" d="m235.83,93.76c-2.9-1.01-5.58-2.08-8.18-3.19-.3.19-.56.44-.77.18-.12-.31-.27-.54-.44-.71-.38-.16-.76-.33-1.13-.5-.15-.02-.29-.03-.45-.04,0,0,0,0-.01,0-.27.07-.29.3-.23.55.1.2.17.42.22.64-.03-.14-.16-.4-.22-.64-.12-.24-.27-.45-.48-.61-.38-.05-.77-.13-1.12-.35.48,0,.85.13,1.12.35.24.03.48.04.72.06.08-.02.15-.03.23-.05-.86-.38-1.71-.77-2.57-1.17-.21-.04-.42-.08-.59-.09-.7-.05-1.4-.11-1.55-.91-.15-.07-.3-.14-.46-.22.01.05.03.1.05.16-.05-.07-.1-.13-.13-.19-.64-.3-1.28-.6-1.93-.91-.53.1-1.09.25-1.6.28,0,0-.13-.56-.2-.84-.31.27-.65.4-.99.4.21.54.37,1.1.58,1.49.2.84,1.5-.99,1.56.48-.06-1.47-1.36.36-1.56-.48-.2-.39-.37-.96-.58-1.49-.72,0-1.45-.53-1.86-1.43,1.03-.27,1.51.54,1.86,1.43.34,0,.69-.13.99-.4.06.28.2.84.2.84.52-.03,1.08-.18,1.6-.28-1.26-.6-2.53-1.2-3.84-1.81-8.34-4.06-16.37-6.85-25.12-10.81-4.72-2.19-9.18-4.49-13.47-6.98-8.56-4.95-17.56-6.22-25.54-13.04-3.1-2.5-9.92-4.29-13.39-5.41-5.41.55-5.18,7.22-5.08,7.63.99,5.98,4.2,4.05,8.86,9.07-3.3-3.09,4.06-2.11,6.49,2.63,3.43,7.13,12.56,5.82,18.66,9.57,1.52.94,3.36,1.35,5.29,2.18,9.55,5.52,19.83,6.84,30.41,11.2,2.85,1.04,5.81.71,8.45.9,1.83.41,3.46,1.77,4.88,2.29,2.24.81,4.34,1.05,6.4,1.14-2.15-.51-3.79-.71-6.16-1.35-1.56-.48,1.7-1.34,2.86-1.35.55-.14.67,1.61,1.22,1.47.94.35,2.03.06,3.19.05.55-.14,0,1.19.27,1.12,1.49.2,3.2-1.14,3.94-.44.6.45,1.12.88,1.63,1.31.35.21.69.41,1.11.5.29-.02.58-.04.88-.06-.05-.49.07-1.02.19-1.55.34.21.74.7,1.08.91-.34-.21-.74-.7-1.08-.91-.12.53-.24,1.07-.19,1.55,2.11-.12,4.47-.06,6.63.08,0-.04.01-.09.02-.13-1.19-.28-2.26-.82-3.14-2.08.4.49.2.84-.41.7-.07-.28-.13-.56-.2-.84,1.16,0,2.31-.01,2.91,1.32,0,0,.55-.14.82-.21.25.31.08.72.02,1.11.23.06.47.1.71.14-.23-.85-1.4-2.27-1.4-2.27Z"/>
          <path class="cls-3" d="m224.13,89.4c.17.01.37.05.59.09-.71-.33-1.43-.67-2.15-1,.15.8.85.85,1.56.91Z"/>
        </g>
      </g>
      <g class="cls-1">
        <g>
          <path class="cls-3" d="m168.93,13.44c-.13.12-.26.25-.4.37.14,0,.32.03.57.12.2.02,0-.24-.17-.49Z"/>
          <path class="cls-3" d="m168.16,14.14s-.05.04-.07.06c.01.05.03.1.05.15,0-.07.01-.14.02-.21Z"/>
          <path class="cls-3" d="m167.85,15.09c.17-.08.23-.23.26-.4-.17.03-.27.15-.26.4Z"/>
          <path class="cls-3" d="m168.6,14.74c-.2-.09-.39-.21-.46-.39,0,0,0,0,0,0,0,.12-.01.23-.03.34.13-.02.3,0,.49.05Z"/>
          <path class="cls-3" d="m168.6,14.74c.19.09.4.14.51.2-.18-.08-.35-.15-.51-.2Z"/>
          <path class="cls-3" d="m172.37,18.17c.06.17-1.03-.76-.9-.41.03.59.29,1.29.04,1.61.13.35-1.29-.44-1.16-.09.03.6.81,2.69,1.17,2.13.47-.9.58-1.64.94-2.5.01-.92-.07-1.9,0-2.8.08-.2.29-.28.49-.37-.33.05-.67.11-1.02.2-.55.04.58,1.57.46,2.24Z"/>
          <path class="cls-3" d="m172.12,10.95c.07.17.2.52.2.52-1.06-.34-1.03.26-1,.85.22.1.45.21.68.31.1-.25-.2-.52-.58-.55,1,.17,1.41-.12,1.61-.59-.32-.23-.66-.52-.91-.54Z"/>
          <path class="cls-3" d="m173.12,11.19c-.03.1-.06.2-.09.3.03.02.07.05.1.07,0-.12.01-.24.02-.36-.01,0-.02,0-.03-.01Z"/>
          <path class="cls-3" d="m167.61,17.46c-.75.99-1.54,1.85-2.38,2.64.16.25.37.5.17.48-.25-.09-.43-.12-.57-.12-.12.11-.25.23-.38.34-.01.07-.02.14-.02.21,0,0,0,0,0,0,.07.18.26.3.46.39.16.05.33.12.51.2-.11-.05-.32-.11-.51-.2-.19-.06-.36-.08-.49-.05-.03.17-.09.33-.26.4-.01-.25.09-.37.26-.4.02-.11.02-.23.03-.34-.02-.05-.03-.1-.05-.15-.29.25-.59.5-.88.74-.03.09-.05.18-.06.26-.03.33-.05.67-.7.35-.05.04-.11.09-.16.13.04.02.08.03.12.05-.05,0-.11-.02-.15-.03-.23.18-.46.36-.69.54.09.32.23.68.27.96,0,0-.45-.21-.68-.31.23.29.34.53.35.7.43.16.89.35,1.2.44.68.31-.84-1.25.35-.56-1.19-.69.33.87-.35.56-.31-.09-.77-.28-1.2-.44.03.37-.4.48-1.12.25-.25-.66.4-.51,1.12-.25,0-.18-.12-.42-.35-.7.23.1.68.31.68.31-.04-.28-.18-.64-.27-.96-.45.35-.91.71-1.37,1.08-3.08,2.29-5.15,5.04-8.13,7.59-1.66,1.35-3.41,2.51-5.32,3.49-3.8,1.96-4.6,5.96-9.94,6.71-1.95.36-3.23,2.99-4.05,4.22.59,3.04,6,6.19,6.33,6.34,4.83,2.42,3.18-.17,7.14-.1-2.43.18-1.82-3.12,1.97-2.04,5.7,1.73,4.4-3.6,7.29-4.89.72-.32,1.01-1.06,1.64-1.64,4.24-2.2,5.05-6.82,8.32-10.11.77-.95.43-2.63.52-3.89.29-.74,1.35-.91,1.73-1.38.6-.75.74-1.71.76-2.73-.36.85-.48,1.6-.94,2.5-.35.56-1.13-1.53-1.17-2.13-.13-.35,1.29.44,1.16.09.26-.31,0-1.01-.04-1.61-.13-.35.97.59.9.41.13-.67-1-2.2-.46-2.24.35-.09.69-.14,1.02-.2.16-.07.31-.16.38-.32-.03-.16-.05-.32-.07-.48-.4-.21-.83-.53-1.27-.86.16-.07.55-.04.71-.11-.16.07-.55.04-.71.11.44.32.87.64,1.27.86-.15-1.14-.16-2.32-.11-3.37-.03-.02-.07-.05-.11-.07-.2.47-.61.76-1.61.59.39.03.68.31.58.56-.23-.1-.45-.21-.68-.31-.03-.6-.07-1.19,1-.85,0,0-.13-.35-.19-.52.24.02.59.31.9.54.04-.09.07-.19.1-.3-.68-.3-1.8-.39-1.8-.39Z"/>
          <path class="cls-3" d="m164.36,21.32c0-.08.03-.17.06-.26-.25.2-.5.41-.76.61.65.32.67-.02.7-.36Z"/>
        </g>
      </g>
      <g class="cls-1">
        <g>
          <path class="cls-3" d="m181.64,37.12c0-.11.02-.21.03-.32-.09.07-.24.14-.49.23-.15.09.17.08.46.09Z"/>
          <path class="cls-3" d="m181.7,36.5s0-.04,0-.06c-.04-.01-.09-.02-.14-.03.05.03.09.06.13.09Z"/>
          <path class="cls-3" d="m181.25,36.02c-.07.11,0,.19.1.27.1-.09.09-.18-.1-.27Z"/>
          <path class="cls-3" d="m180.97,36.5c.21-.06.43-.11.6-.08,0,0,0,0,0,0-.08-.04-.15-.09-.22-.13-.07.07-.21.14-.38.21Z"/>
          <path class="cls-3" d="m180.97,36.5c-.2.06-.38.14-.5.18.18-.06.35-.12.5-.18Z"/>
          <path class="cls-3" d="m175.91,37.1c-.17-.03,1.26-.23.93-.29-.44-.19-1.11-.31-1.15-.55-.34-.06,1.22-.46.89-.52-.44-.19-2.45-.56-2.3-.19.29.54.73.86,1.07,1.33.63.33,1.37.63,1.95.98.08.11,0,.24-.09.36.2-.18.4-.36.58-.56.36-.28-1.5-.27-1.88-.57Z"/>
          <path class="cls-3" d="m181.11,39.52c-.17-.03-.5-.09-.5-.09.99-.39.55-.58.12-.78-.23.07-.46.14-.69.22.1.13.5.09.8-.08-.82.42-.92.72-.73.98.38-.07.83-.14,1.02-.24Z"/>
          <path class="cls-3" d="m180.23,39.91c-.05-.05-.1-.1-.14-.15-.04,0-.08.02-.12.02.08.05.16.09.23.14.01,0,.02,0,.03-.01Z"/>
          <path class="cls-3" d="m179.78,35.07c-.16-.71-.19-1.39-.15-2.07-.29,0-.61,0-.46-.09.24-.09.39-.16.49-.23,0-.1.02-.2.03-.3-.04-.03-.08-.06-.13-.08,0,0,0,0,0,0-.17-.03-.39.02-.59.08-.15.06-.32.12-.5.18.12-.04.3-.11.5-.18.17-.07.31-.14.38-.21-.1-.07-.17-.16-.1-.27.18.08.2.17.1.27.07.05.14.09.22.13.05,0,.09.02.14.03.03-.23.07-.46.11-.68-.04-.04-.08-.09-.14-.12-.21-.13-.43-.26.25-.46,0-.04.01-.08.03-.12-.04.01-.08.03-.12.04.04-.02.09-.05.13-.06.03-.17.07-.35.11-.52-.28-.07-.64-.13-.86-.21,0,0,.46-.14.69-.21-.36,0-.61-.02-.74-.08-.41.15-.87.3-1.15.42-.7.22,1.47.04.14.37,1.32-.33-.84-.15-.14-.37.28-.12.74-.27,1.15-.42-.28-.12-.05-.36.62-.62.63.11.07.37-.62.62.13.06.38.09.74.08-.23.07-.69.21-.69.21.22.08.57.14.86.21.08-.34.15-.69.22-1.04.59-2.28.14-4.24.49-6.57.24-1.27.68-2.52,1.35-3.78,1.33-2.51-.88-4.3,2.38-7.12,1.13-1.06.21-2.6-.06-3.42-2.53-.79-8.56.69-8.9.79-5.11,1.46-2.14,1.58-4.99,3.45,1.6-1.22,3.46.23.02,1.66-5.25,2.12-.62,3.37-1.77,5.21-.29.46.02.86-.02,1.36-1.48,2.8,1.17,4.82,1.13,7.54.12.7,1.53,1.13,2.34,1.62.31.4-.32.96-.27,1.32.09.55.66.96,1.36,1.32-.34-.47-.77-.79-1.07-1.33-.14-.37,1.87,0,2.3.19.33.06-1.22.46-.89.52.04.23.71.36,1.15.55.33.06-1.09.26-.93.29.37.3,2.24.29,1.88.57-.19.2-.39.38-.58.56-.06.1-.12.21-.05.29.13.04.26.09.39.13.43-.11.96-.21,1.49-.3-.06.1-.36.28-.43.38.07-.1.36-.28.43-.38-.53.1-1.06.19-1.49.3.9.33,1.73.74,2.42,1.13.04,0,.08-.02.13-.03-.19-.26-.1-.56.73-.98-.3.17-.69.22-.8.08.23-.07.46-.14.7-.21.44.19.88.39-.11.78,0,0,.33.06.5.09-.19.11-.63.17-1.01.24.03.05.08.1.14.15.69-.22,1.55-.73,1.55-.73Z"/>
          <path class="cls-3" d="m179.39,32.15c.05.03.09.07.13.12.04-.19.07-.38.11-.58-.68.2-.46.33-.25.46Z"/>
        </g>
      </g>
      <g class="cls-1">
        <g>
          <path class="cls-3" d="m227.14,4.38c-.19.14-.39.27-.59.4.16,0,.35.05.6.16.22.03.08-.27-.02-.56Z"/>
          <path class="cls-3" d="m226,5.14s-.07.05-.11.07c0,.06,0,.11,0,.17.03-.08.07-.16.1-.24Z"/>
          <path class="cls-3" d="m225.3,6.22c.22-.08.35-.25.44-.45-.21.03-.37.16-.44.45Z"/>
          <path class="cls-3" d="m226.27,5.85c-.2-.11-.37-.26-.38-.47,0,0,0,0,0,0-.05.13-.1.26-.16.39.16-.02.34.01.54.09Z"/>
          <path class="cls-3" d="m226.27,5.85c.19.11.4.18.51.25-.17-.1-.35-.19-.51-.25Z"/>
          <path class="cls-3" d="m229.31,9.95c0,.2-.9-.92-.88-.51-.18.68-.14,1.49-.55,1.84.02.41-1.31-.57-1.29-.16-.18.68-.07,3.11.54,2.49.86-1.01,1.27-1.85,1.99-2.81.36-1.06.62-2.17,1.03-3.2.17-.23.43-.31.69-.4-.4.04-.81.1-1.24.18-.64.02.09,1.82-.3,2.58Z"/>
          <path class="cls-3" d="m231.69,1.68c.01.2.03.61.03.61-1.09-.44-1.27.24-1.45.92.22.13.44.26.66.38.2-.28-.03-.61-.46-.66,1.08.24,1.65-.07,2.05-.6-.28-.27-.57-.62-.84-.66Z"/>
          <path class="cls-3" d="m232.74,2c-.07.12-.14.23-.22.34.03.03.06.06.09.09.05-.14.1-.27.16-.41-.01,0-.02-.01-.03-.02Z"/>
          <path class="cls-3" d="m224.14,8.91c-1.22,1.1-2.44,2.04-3.69,2.9.09.29.24.59.01.56-.25-.12-.44-.16-.6-.16-.18.12-.37.25-.55.37-.04.07-.07.15-.1.24,0,0,0,0,0,0,.01.2.18.35.38.46.16.06.34.15.51.25-.11-.07-.32-.14-.51-.25-.2-.07-.38-.11-.53-.08-.1.2-.22.37-.44.45.08-.28.23-.42.44-.45.06-.13.11-.26.16-.39,0-.06,0-.11,0-.17-.42.28-.85.54-1.28.81-.06.1-.13.2-.16.29-.15.38-.31.76-.93.37-.08.05-.15.09-.23.14.04.02.08.04.12.07-.06,0-.11-.02-.16-.04-.33.2-.66.39-.99.59-.01.37.01.79-.05,1.11,0,0-.44-.26-.66-.39.15.34.19.62.14.82.43.2.88.44,1.21.56.66.39-.49-1.47.61-.63-1.1-.85.05,1.01-.61.63-.32-.11-.77-.36-1.21-.56-.11.43-.63.53-1.37.23-.04-.76.64-.57,1.37-.23.05-.2.01-.48-.14-.82.22.13.66.39.66.39.06-.32.04-.74.05-1.11-.65.38-1.3.77-1.97,1.17-4.36,2.47-7.74,5.53-12.08,8.3-2.39,1.47-4.82,2.71-7.36,3.74-5.06,2.07-7.45,6.6-13.82,7.21-2.37.33-4.79,3.27-6.18,4.63-.46,3.51,4.56,7.37,4.88,7.55,4.62,3,3.69-.05,8.19.22-2.83.09-.93-3.65,3-2.24,5.87,2.25,6.35-3.91,10.13-5.25.94-.33,1.55-1.17,2.47-1.8,5.65-2.31,8.28-7.57,13.23-11.18,1.23-1.05,1.46-2.99,2.03-4.43.6-.83,1.87-.98,2.49-1.5.97-.83,1.48-1.92,1.87-3.08-.73.96-1.13,1.8-1.99,2.81-.61.63-.73-1.8-.55-2.49-.02-.41,1.31.57,1.29.16.41-.35.37-1.16.55-1.84-.02-.41.89.72.88.51.39-.76-.33-2.56.3-2.58.43-.08.84-.13,1.24-.18.21-.08.42-.16.55-.35.03-.18.06-.37.09-.55-.37-.26-.75-.65-1.13-1.04.21-.07.64-.02.85-.09-.21.07-.64.02-.85.09.38.39.76.78,1.13,1.04.25-1.31.67-2.66,1.12-3.85-.03-.03-.06-.06-.09-.09-.4.53-.97.84-2.05.6.43.06.66.38.46.66-.22-.13-.44-.26-.66-.39.18-.68.36-1.37,1.45-.92,0,0-.02-.41-.03-.61.27.03.55.39.83.66.08-.1.15-.22.22-.33-.67-.37-1.91-.53-1.91-.53Z"/>
          <path class="cls-3" d="m219.01,13.18c.04-.09.1-.19.17-.29-.36.22-.73.44-1.09.66.62.39.77,0,.93-.37Z"/>
        </g>
      </g>
      <g class="cls-1">
        <g>
          <path class="cls-3" d="m217.76,59.21c.09-.2.18-.41.28-.61-.13.07-.32.13-.6.16-.2.09.08.26.31.45Z"/>
          <path class="cls-3" d="m218.31,58.03s.04-.07.05-.11c-.03-.05-.06-.09-.09-.14.02.08.03.17.04.25Z"/>
          <path class="cls-3" d="m218.33,56.81c-.14.17-.16.37-.13.58.16-.13.22-.31.13-.58Z"/>
          <path class="cls-3" d="m217.7,57.58c.23,0,.45.04.57.2,0,0,0,0,0,0-.03-.13-.06-.26-.07-.39-.12.09-.29.16-.49.19Z"/>
          <path class="cls-3" d="m217.7,57.58c-.22,0-.44.04-.56.04.2,0,.39-.01.56-.04Z"/>
          <path class="cls-3" d="m212.97,55.7c-.12-.16,1.24.32,1.01,0-.21-.65-.68-1.29-.52-1.78-.23-.32,1.4-.17,1.17-.49-.21-.65-1.61-2.58-1.79-1.77-.19,1.24-.07,2.13-.17,3.27.27,1.04.65,2.08.85,3.12-.02.27-.2.46-.37.66.31-.23.62-.47.94-.75.53-.33-1.05-1.45-1.12-2.26Z"/>
          <path class="cls-3" d="m215.39,63.62c-.12-.16-.35-.48-.35-.48,1.15-.17.93-.81.72-1.46-.25,0-.51,0-.76,0-.02.32.35.48.74.32-1.03.33-1.35.86-1.4,1.49.38.09.81.24,1.05.13Z"/>
          <path class="cls-3" d="m214.33,63.86c0-.13,0-.26,0-.38-.04-.01-.08-.02-.12-.03.03.14.06.27.08.41.01,0,.02,0,.04,0Z"/>
          <path class="cls-3" d="m217.86,54.05c.43-1.49.96-2.85,1.54-4.16-.23-.19-.52-.37-.31-.45.27-.03.46-.08.59-.16.09-.19.18-.38.27-.57,0-.08-.02-.16-.04-.24,0,0,0,0,0,0-.12-.16-.34-.2-.56-.2-.17.03-.36.04-.56.04.13,0,.34-.04.56-.04.2-.04.38-.09.49-.19-.03-.21-.01-.41.13-.58.09.27.03.46-.13.58.02.13.05.26.08.4.03.05.06.09.09.14.21-.43.42-.86.64-1.28,0-.12,0-.22-.02-.32-.07-.39-.15-.77.58-.75.04-.08.08-.15.12-.23-.05,0-.09,0-.14,0,.05-.02.11-.04.16-.05.17-.32.34-.64.51-.96-.18-.31-.43-.64-.55-.93,0,0,.51,0,.76,0-.31-.21-.49-.41-.56-.61-.47.05-.98.07-1.31.13-.76,0,1.2.97-.18.81,1.38.16-.58-.81.18-.81.33-.06.84-.08,1.31-.13-.14-.4.24-.74,1.02-.85.44.61-.24.77-1.02.85.06.19.25.4.56.61-.25,0-.76,0-.76,0,.12.29.37.63.55.93.34-.63.68-1.26,1.02-1.91,2.34-4.13,3.54-8.27,5.7-12.64,1.22-2.36,2.6-4.55,4.17-6.63,3.14-4.14,2.72-9.01,7.74-12.59,1.81-1.41,2.27-4.99,2.71-6.78-1.49-3.09-7.76-3.82-8.13-3.82-5.48-.22-3.07,1.83-6.98,3.78,2.33-1.44,2.73,2.54-1.32,3.29-6.12,1-3.24,6.27-5.69,9.19-.61.73-.67,1.7-1.11,2.67-3.5,4.63-2.9,10.2-5.12,15.55-.47,1.46.38,3.15.67,4.61-.06.97-1.05,1.7-1.29,2.43-.37,1.15-.21,2.29.08,3.43.1-1.14-.01-2.03.17-3.27.18-.81,1.57,1.13,1.79,1.77.23.32-1.4.17-1.17.49-.16.48.31,1.13.52,1.77.23.32-1.13-.16-1.01,0,.08.81,1.65,1.93,1.13,2.26-.32.27-.63.51-.94.75-.14.17-.26.33-.28.55.07.16.14.33.22.5.45.04.98.17,1.5.31-.14.16-.53.32-.66.49.14-.16.53-.32.66-.49-.53-.14-1.05-.27-1.5-.31.49,1.2.86,2.51,1.12,3.7.04,0,.08.02.13.03.05-.63.37-1.16,1.4-1.48-.39.16-.76,0-.74-.32.25,0,.51,0,.76,0,.21.65.43,1.29-.72,1.46,0,0,.23.32.35.48-.24.1-.67-.05-1.05-.13-.01.12-.01.25,0,.38.76-.02,1.89-.49,1.89-.49Z"/>
          <path class="cls-3" d="m219.88,48.07c.02.09.02.2.02.32.19-.36.37-.71.56-1.07-.73-.02-.65.37-.58.75Z"/>
        </g>
      </g>
      <g class="cls-1">
        <g>
          <path class="cls-3" d="m238.23,37.94c-.11.08-.23.16-.34.24.12.02.28.09.51.22.18.05-.01-.21-.17-.46Z"/>
          <path class="cls-3" d="m237.56,38.4s-.04.03-.06.04c.01.05.03.09.05.14,0-.06,0-.12.02-.18Z"/>
          <path class="cls-3" d="m237.31,39.17c.15-.03.2-.15.22-.3-.15,0-.24.08-.22.3Z"/>
          <path class="cls-3" d="m237.97,39.01c-.18-.12-.36-.26-.42-.43,0,0,0,0,0,0,0,.1,0,.2-.02.29.11,0,.26.06.44.14Z"/>
          <path class="cls-3" d="m237.97,39.01c.18.12.36.21.46.27-.16-.11-.32-.2-.46-.27Z"/>
          <path class="cls-3" d="m241.43,42.74c.06.16-.94-.87-.82-.54.05.52.3,1.19.08,1.41.13.33-1.16-.64-1.04-.31.05.53.8,2.5,1.1,2.08.39-.69.47-1.32.77-1.99-.01-.8-.12-1.67-.09-2.44.07-.16.25-.19.42-.22-.3-.02-.6-.03-.9-.03-.49-.07.57,1.48.47,2.04Z"/>
          <path class="cls-3" d="m241,36.4c.06.17.19.5.19.5-.96-.51-.91.02-.86.54.2.13.41.27.61.4.08-.19-.19-.5-.53-.6.9.34,1.25.18,1.42-.2-.29-.26-.61-.58-.82-.65Z"/>
          <path class="cls-3" d="m241.9,36.81c-.02.09-.04.17-.07.24.03.03.06.05.09.08,0-.1,0-.21.01-.31-.01,0-.02-.01-.03-.02Z"/>
          <path class="cls-3" d="m237.16,41.18c-.64.72-1.32,1.3-2.05,1.83.15.25.35.51.16.46-.23-.13-.39-.19-.51-.22-.11.07-.22.15-.33.22,0,.05-.01.11-.02.18,0,0,0,0,0,0,.06.17.24.31.42.43.14.07.3.17.46.27-.1-.07-.29-.16-.46-.27-.17-.09-.32-.14-.43-.14-.02.15-.07.27-.22.3-.02-.22.07-.3.22-.3.01-.09.01-.19.01-.29-.02-.05-.03-.09-.05-.14-.25.16-.51.32-.77.47-.02.07-.04.14-.05.21-.01.29-.03.57-.61.17-.04.03-.09.06-.14.08.04.02.07.04.11.07-.05-.01-.09-.03-.14-.05-.2.11-.4.23-.6.34.09.29.23.64.27.89,0,0-.41-.27-.61-.4.21.3.32.53.33.68.39.22.8.48,1.08.62.61.4-.79-1.26.3-.42-1.08-.84.32.83-.3.42-.28-.14-.69-.4-1.08-.62.03.33-.34.34-.99,0-.24-.62.34-.37.99,0-.01-.16-.12-.39-.33-.68.2.13.61.4.61.4-.04-.25-.18-.6-.27-.89-.39.22-.79.44-1.2.67-2.69,1.38-4.45,3.37-7.04,5-1.44.85-2.98,1.51-4.65,1.99-3.34.96-3.94,4.28-8.68,3.88-1.73-.07-2.8,1.96-3.49,2.87.61,2.77,5.53,6.58,5.83,6.78,4.38,3.07,2.84.48,6.37,1.32-2.16-.33-1.72-3.08,1.7-1.39,5.14,2.64,3.83-2.26,6.37-2.81.64-.14.87-.72,1.41-1.11,3.72-1.07,4.31-4.95,7.14-7.17.66-.68.3-2.21.35-3.29.24-.59,1.18-.52,1.51-.86.52-.53.61-1.34.6-2.22-.3.67-.38,1.3-.77,1.99-.3.42-1.05-1.56-1.1-2.08-.13-.33,1.16.64,1.04.31.22-.22-.03-.88-.08-1.41-.12-.33.88.7.82.54.09-.56-.96-2.11-.47-2.04.31,0,.61,0,.9.03.14-.03.28-.07.33-.21-.03-.14-.05-.29-.08-.43-.36-.27-.76-.63-1.16-1,.14-.03.49.07.63.05-.14.03-.49-.08-.63-.05.4.37.8.73,1.16,1-.17-1.03-.21-2.06-.19-2.95-.03-.03-.06-.06-.1-.08-.16.37-.52.54-1.42.2.35.1.61.4.54.6-.2-.13-.41-.27-.61-.4-.05-.53-.1-1.05.86-.54,0,0-.13-.33-.19-.5.22.07.53.39.82.65.03-.07.06-.15.08-.24-.62-.4-1.62-.7-1.62-.7Z"/>
          <path class="cls-3" d="m234.38,43.91c0-.07.03-.14.05-.21-.22.13-.44.26-.66.38.59.4.6.12.61-.17Z"/>
        </g>
      </g>
      <g class="cls-1">
        <g>
          <path class="cls-3" d="m246.05,92.76c.03-.21.06-.42.09-.64-.11.1-.27.21-.52.31-.17.13.15.22.43.33Z"/>
          <path class="cls-3" d="m246.24,91.53s.01-.08.02-.11c-.04-.04-.08-.07-.13-.1.04.07.08.14.11.21Z"/>
          <path class="cls-3" d="m245.9,90.41c-.09.19-.04.38.04.57.11-.16.12-.34-.04-.57Z"/>
          <path class="cls-3" d="m245.53,91.29c.22-.06.44-.09.6.03,0,0,0,0,0,0-.06-.11-.13-.23-.18-.34-.09.12-.23.22-.42.31Z"/>
          <path class="cls-3" d="m245.53,91.29c-.21.06-.41.16-.53.19.19-.05.37-.12.53-.19Z"/>
          <path class="cls-3" d="m240.45,90.85c-.16-.12,1.28-.05.97-.28-.39-.53-1.02-1-1.01-1.49-.32-.23,1.29-.53.98-.76-.39-.53-2.28-1.93-2.22-1.14.18,1.19.54,1.97.78,3.04.55.88,1.21,1.73,1.71,2.63.06.25-.06.48-.16.71.23-.3.46-.6.69-.94.41-.44-1.42-1.04-1.72-1.76Z"/>
          <path class="cls-3" d="m245.04,97.44c-.16-.12-.47-.35-.47-.35,1.05-.46.66-1,.27-1.53-.24.07-.48.14-.73.21.07.3.47.35.8.09-.89.58-1.04,1.15-.92,1.74.39-.02.84,0,1.05-.16Z"/>
          <path class="cls-3" d="m244.1,97.95c-.04-.12-.08-.23-.11-.35-.04,0-.08,0-.12,0,.07.12.14.24.2.35.01,0,.02,0,.03-.01Z"/>
          <path class="cls-3" d="m244.66,88.01c-.01-1.48.1-2.87.28-4.23-.28-.11-.6-.2-.43-.33.25-.1.41-.2.52-.3.03-.2.06-.4.09-.59-.03-.07-.07-.14-.11-.21,0,0,0,0,0,0-.16-.12-.38-.09-.6-.03-.15.07-.34.14-.53.19.12-.03.32-.13.53-.19.19-.09.33-.19.42-.31-.08-.18-.13-.37-.04-.57.16.22.16.41.04.57.05.12.12.23.19.34.04.03.08.07.13.1.08-.45.16-.9.25-1.35-.03-.11-.06-.21-.11-.29-.18-.33-.37-.66.34-.85.01-.08.03-.16.05-.24-.04.01-.08.03-.13.04.04-.03.09-.06.14-.09.07-.34.14-.68.22-1.02-.26-.23-.6-.47-.8-.7,0,0,.48-.14.73-.21-.36-.1-.59-.24-.71-.4-.44.17-.92.33-1.22.47-.73.21,1.43.56.06.79,1.37-.23-.79-.58-.06-.79.3-.15.78-.3,1.22-.47-.25-.33.02-.74.73-1.06.6.44,0,.77-.73,1.06.12.16.35.3.71.4-.24.07-.73.21-.73.21.2.24.53.47.8.7.14-.67.29-1.34.43-2.03,1.05-4.42,1.01-8.53,1.83-13.13.49-2.49,1.18-4.87,2.1-7.2,1.82-4.65.02-8.99,3.8-13.63,1.33-1.78.74-5.19.65-6.95-2.32-2.43-8.53-1.39-8.88-1.29-5.31,1.29-2.42,2.51-5.6,5.36,1.82-1.95,3.34,1.58-.32,3.37-5.58,2.58-1.3,6.62-2.81,9.97-.38.84-.16,1.74-.3,2.75-2.03,5.19.15,10.13-.44,15.63-.03,1.46,1.27,2.79,1.96,4.04.22.91-.52,1.85-.54,2.58-.02,1.15.45,2.15,1.06,3.12-.23-1.07-.59-1.85-.77-3.04-.06-.79,1.83.6,2.22,1.14.32.23-1.29.53-.98.77-.01.49.62.95,1.01,1.48.31.23-1.13.16-.97.28.3.72,2.14,1.32,1.73,1.77-.22.34-.46.64-.69.94-.08.19-.16.38-.1.58.12.13.23.26.35.4.44-.09.98-.11,1.53-.13-.08.19-.41.44-.5.62.09-.19.41-.44.5-.62-.54.02-1.08.04-1.53.13.82.96,1.54,2.06,2.13,3.08.04,0,.09,0,.13,0-.13-.59.02-1.16.91-1.74-.33.25-.72.21-.8-.09.24-.07.48-.14.73-.21.39.53.78,1.07-.27,1.53,0,0,.32.23.47.35-.2.16-.66.14-1.04.16.02.11.06.23.1.35.72-.22,1.67-.96,1.67-.96Z"/>
          <path class="cls-3" d="m244.88,81.98c.04.08.07.18.11.29.08-.38.15-.75.23-1.13-.71.18-.52.51-.34.85Z"/>
        </g>
      </g>
    </g>
  </g>
</svg>