<?xml version="1.0" encoding="UTF-8"?>
<svg id="Calque_2" data-name="Calque 2" xmlns="http://www.w3.org/2000/svg" viewBox="0 0 721.88 161.43">
  <defs>
    <style>
      .cls-1 {
        opacity: .85;
      }

      .cls-2, .cls-3, .cls-4 {
        stroke-width: 0px;
      }

      .cls-3 {
        fill: none;
      }

      .cls-4 {
        fill: #21f3f3;
      }
    </style>
  </defs>
  <g id="Calque_1-2" data-name="Calque 1">
    <g id="Calque_1-2" data-name="Calque 1-2">
      <g>
        <g>
          <path class="cls-3" d="m6.06,98.95c6.23,0,10.88-1.23,13.98-3.69,3.09-2.46,4.64-6.04,4.64-10.74s-1.3-8.25-3.89-10.52-6.66-3.4-12.18-3.4H0v28.35h6.06Z"/>
          <path class="cls-2" d="m45.13,83.8c0,10.27-3.21,18.13-9.64,23.58-6.42,5.45-15.56,8.17-27.4,8.17H0v-16.6h6.06c6.23,0,10.88-1.22,13.98-3.69,3.09-2.46,4.64-6.05,4.64-10.75s-1.3-8.25-3.89-10.52c-2.59-2.26-6.66-3.4-12.18-3.4H0v-16.59h9.65c11.59,0,20.39,2.49,26.42,7.48,6.03,4.98,9.05,12.42,9.05,22.31Z"/>
        </g>
        <path class="cls-2" d="m149.84,101.63c0,15.81-3.92,27.96-11.76,36.45s-19.08,12.74-33.71,12.74-25.87-4.25-33.71-12.74c-7.84-8.49-11.76-20.68-11.76-36.58s3.93-28.03,11.79-36.42c7.86-8.38,19.13-12.58,33.81-12.58s25.9,4.23,33.67,12.68c7.77,8.45,11.66,20.6,11.66,36.45Zm-69.7,0c0,10.67,2.03,18.7,6.07,24.11,4.05,5.4,10.1,8.1,18.16,8.1,16.15,0,24.23-10.74,24.23-32.2s-8.03-32.27-24.11-32.27c-8.06,0-14.13,2.71-18.23,8.13-4.09,5.42-6.14,13.47-6.14,24.13h0Z"/>
        <path class="cls-2" d="m721.88,101.63c0,15.81-3.92,27.96-11.76,36.45s-19.08,12.74-33.71,12.74-25.87-4.25-33.71-12.74c-7.84-8.49-11.76-20.68-11.76-36.58s3.93-28.03,11.79-36.42c7.86-8.38,19.13-12.58,33.81-12.58s25.9,4.23,33.67,12.68c7.77,8.45,11.66,20.6,11.66,36.45Zm-69.7,0c0,10.67,2.03,18.7,6.07,24.11,4.05,5.4,10.1,8.1,18.16,8.1,16.15,0,24.23-10.74,24.23-32.2s-8.03-32.27-24.11-32.27c-8.05,0-14.13,2.71-18.23,8.13-4.09,5.42-6.14,13.47-6.14,24.13h0Z"/>
        <g>
          <path class="cls-3" d="m175.01,96.4c6.4,0,11.12-1.06,14.17-3.2,3.05-2.13,4.58-5.49,4.58-10.06s-1.56-7.75-4.67-9.67c-3.12-1.91-7.94-2.88-14.47-2.88h-6.05v25.8h6.44,0Z"/>
          <path class="cls-2" d="m196.43,107.9c5.66-2.48,10.04-5.91,13.13-10.29,3.09-4.37,4.64-9.37,4.64-14.99,0-9.63-3.12-16.8-9.34-21.53-6.23-4.72-15.83-7.09-28.81-7.09h-7.49.67v16.59h-.09,5.48c6.54,0,11.36.96,14.47,2.88,3.11,1.92,4.67,5.14,4.67,9.67s-1.53,7.93-4.58,10.06-7.77,3.2-14.17,3.2h-5.87.09v16.46h10.02l22.8,36.65h22.47c-4.35-6.27-13.72-20.14-28.09-41.61Z"/>
        </g>
        <g>
          <rect class="cls-2" x="259.83" y="87.59" width="20.25" height="61.92"/>
          <polygon class="cls-2" points="306.01 54.01 306.01 70.86 280.08 70.86 280.08 70.87 259.83 70.87 259.83 70.86 233.89 70.86 233.89 54.01 306.01 54.01"/>
        </g>
        <g>
          <rect class="cls-2" x="333.79" y="95.23" width="38.13" height="16.52"/>
          <rect class="cls-2" x="333.79" y="54.01" width="53.7" height="16.59"/>
        </g>
      </g>
    </g>
    <g class="cls-1">
      <g>
        <path class="cls-4" d="m465.88,30.91c-.18.03-.36.06-.54.08.1.03.2.09.32.19.13.05.16-.12.21-.27Z"/>
        <path class="cls-4" d="m464.85,31.07s-.07,0-.1.01c-.02.03-.05.05-.07.08.05-.03.11-.07.16-.09Z"/>
        <path class="cls-4" d="m463.97,31.45c.17,0,.32-.06.46-.13-.14-.02-.3,0-.46.13Z"/>
        <path class="cls-4" d="m464.74,31.46c-.08-.09-.13-.19-.06-.3,0,0,0,0,0,0-.08.05-.17.11-.26.16.11.02.21.07.31.14Z"/>
        <path class="cls-4" d="m464.74,31.46c.08.09.19.16.23.22-.07-.08-.15-.15-.23-.22Z"/>
        <path class="cls-4" d="m465.07,33.99c-.07.1-.21-.61-.36-.41-.39.29-.68.69-1.08.78-.15.2-.61-.52-.76-.32-.39.29-1.27,1.49-.63,1.3.95-.32,1.54-.66,2.39-.98.65-.44,1.25-.93,1.92-1.35.2-.08.4-.07.6-.06-.27-.05-.55-.1-.86-.14-.42-.11-.67.89-1.21,1.18Z"/>
        <path class="cls-4" d="m469.86,30.46c-.07.1-.22.3-.22.3-.52-.41-.91-.12-1.29.18.09.1.18.21.27.31.24-.1.22-.3-.03-.4.6.31,1.08.27,1.55.09-.07-.18-.12-.41-.27-.47Z"/>
        <path class="cls-4" d="m470.4,30.81c-.09.04-.18.09-.27.12,0,.02.02.04.02.06.09-.06.18-.11.26-.17,0,0,0,0-.01-.01Z"/>
        <path class="cls-4" d="m462.17,32.53c-1.21.3-2.37.53-3.51.71-.06.16-.08.33-.21.27-.11-.1-.22-.16-.32-.19-.17.03-.33.05-.5.07-.05.03-.11.06-.16.09,0,0,0,0,0,0-.07.1-.02.2.06.29.08.06.16.13.23.22-.04-.05-.15-.13-.23-.22-.1-.07-.2-.12-.31-.14-.14.08-.29.14-.46.13.16-.12.32-.16.46-.13.09-.05.17-.1.25-.16.02-.03.04-.05.07-.08-.38.05-.76.1-1.14.15-.08.04-.16.07-.22.11-.25.15-.5.31-.74,0-.07,0-.14.02-.2.02.02.02.03.03.05.05-.03-.01-.06-.03-.09-.05-.29.03-.58.07-.87.1-.15.17-.3.38-.47.52,0,0-.18-.2-.27-.31-.04.19-.12.33-.24.42.2.18.39.38.55.49.27.31.27-.8.64-.19-.37-.61-.37.5-.64.19-.16-.11-.35-.32-.55-.49-.24.19-.61.14-.97-.14.28-.37.63-.15.97.14.12-.09.2-.23.24-.42.09.1.27.31.27.31.17-.14.32-.35.47-.52-.57.06-1.14.13-1.72.2-3.77.38-7.14,1.22-11.02,1.75-2.11.26-4.16.41-6.19.43-4.06.05-7.38,1.79-11.69.9-1.64-.28-4.36.68-5.79,1.08-1.68,1.6,0,4.39.14,4.54,1.77,2.3,2.38.66,5.15,1.63-1.85-.48.85-1.93,2.81-.52,2.87,2.17,5.61-.7,8.55-.64.74.02,1.45-.27,2.3-.41,4.53-.06,8.29-2.1,12.89-2.92,1.2-.28,2.12-1.17,3.05-1.75.71-.29,1.58-.12,2.19-.26.95-.22,1.71-.65,2.42-1.13-.84.33-1.44.66-2.39.98-.64.19.25-1,.63-1.3.15-.2.61.52.76.32.4-.09.7-.49,1.08-.78.15-.2.29.51.36.41.55-.29.8-1.29,1.22-1.19.31.04.59.09.86.14.17,0,.33,0,.49-.07.09-.08.18-.17.28-.25-.13-.2-.22-.45-.31-.71.16,0,.42.11.58.11-.16,0-.42-.11-.58-.11.09.26.18.51.31.71.68-.59,1.48-1.16,2.24-1.65,0-.02-.02-.04-.03-.06-.47.18-.95.22-1.55-.09.25.11.27.31.03.4-.09-.1-.18-.21-.27-.31.39-.29.77-.59,1.29-.18,0,0,.15-.2.22-.3.16.07.2.29.27.47.09-.03.18-.08.27-.12-.28-.3-1.02-.61-1.02-.61Z"/>
        <path class="cls-4" d="m457.2,33.63c.06-.04.14-.07.22-.11-.32.04-.64.08-.96.12.24.3.49.15.74,0Z"/>
      </g>
    </g>
    <g class="cls-1">
      <g>
        <path class="cls-4" d="m421.3,19.92c-.02.07-.04.14-.06.21.06-.03.14-.06.27-.08.09-.04-.07-.08-.21-.13Z"/>
        <path class="cls-4" d="m421.17,20.33s0,.03-.01.04c.02.01.04.03.06.04-.02-.03-.04-.05-.05-.08Z"/>
        <path class="cls-4" d="m421.31,20.73c.05-.06.03-.13,0-.2-.06.05-.07.11,0,.2Z"/>
        <path class="cls-4" d="m421.52,20.45c-.11.01-.22,0-.3-.04,0,0,0,0,0,0,.03.04.06.08.08.13.05-.04.12-.06.22-.08Z"/>
        <path class="cls-4" d="m421.52,20.45c.11-.01.21-.03.27-.04-.1,0-.19.02-.27.04Z"/>
        <path class="cls-4" d="m424.04,20.84c.08.05-.64-.04-.49.05.18.2.48.39.47.55.15.09-.66.12-.5.21.18.2,1.09.76,1.08.49-.06-.41-.22-.7-.31-1.07-.25-.33-.56-.65-.79-.98-.02-.09.04-.16.1-.23-.12.09-.25.18-.36.29-.22.13.68.42.82.68Z"/>
        <path class="cls-4" d="m421.91,18.38c.08.05.23.14.23.14-.53.11-.35.31-.17.51.12-.01.24-.02.37-.04-.03-.11-.23-.14-.39-.07.46-.16.55-.34.5-.55-.2-.01-.42-.04-.52,0Z"/>
        <path class="cls-4" d="m422.39,18.25s.03.08.05.12c.02,0,.04,0,.06,0-.03-.04-.06-.09-.09-.13,0,0-.01,0-.02,0Z"/>
        <path class="cls-4" d="m421.88,21.61c-.03.51-.12.97-.24,1.43.14.05.29.1.21.13-.13.02-.21.05-.27.08-.02.07-.04.13-.06.2.01.03.03.05.05.08,0,0,0,0,0,0,.08.05.19.05.3.04.08-.02.17-.03.27-.04-.06,0-.16.03-.27.04-.09.02-.17.05-.22.09.04.07.06.13,0,.2-.08-.08-.07-.15,0-.2-.02-.04-.06-.08-.08-.13-.02-.01-.04-.03-.06-.04-.05.15-.1.3-.16.45.01.04.03.07.05.1.08.12.17.24-.19.27,0,.03-.02.05-.03.08.02,0,.04,0,.07,0-.02,0-.05.02-.07.02-.04.11-.09.22-.13.34.13.09.29.19.38.28,0,0-.24.02-.37.04.17.05.29.11.34.17.22-.04.46-.07.62-.1.37-.04-.7-.26-.01-.27-.69.01.38.23.01.27-.15.04-.4.07-.62.1.11.12-.03.25-.39.33-.29-.18.02-.26.39-.33-.05-.06-.17-.12-.34-.17.12-.01.37-.04.37-.04-.09-.09-.25-.19-.38-.28-.09.22-.18.44-.26.67-.63,1.46-.71,2.86-1.23,4.39-.31.82-.71,1.6-1.22,2.35-1.02,1.5-.23,3.06-2.22,4.46-.7.54-.49,1.73-.49,2.34,1.09.94,4.21.88,4.39.86,2.67-.19,1.27-.74,2.92-1.56-.95.58-1.63-.7.24-1.13,2.84-.61.81-2.19,1.64-3.26.21-.27.12-.59.21-.92,1.14-1.67.17-3.46.6-5.31.05-.5-.56-1.01-.88-1.47-.09-.32.3-.6.33-.85.04-.39-.17-.76-.45-1.11.09.37.25.66.31,1.07.01.27-.9-.29-1.08-.49-.15-.09.66-.12.5-.22.02-.16-.29-.35-.47-.55-.15-.09.56,0,.49-.05-.13-.26-1.03-.55-.82-.68.12-.1.24-.2.36-.29.05-.06.09-.12.07-.19-.06-.05-.11-.1-.16-.15-.22,0-.49,0-.76-.03.05-.06.21-.13.26-.19-.05.06-.22.13-.26.19.27.02.54.04.76.03-.38-.37-.72-.78-.99-1.15-.02,0-.04,0-.06,0,.05.21-.04.39-.5.55.17-.07.37-.04.4.07-.12.01-.24.02-.37.04-.18-.2-.36-.4.17-.51,0,0-.15-.09-.23-.14.11-.04.33-.02.52,0,0-.04-.02-.08-.04-.12-.37.04-.85.25-.85.25Z"/>
        <path class="cls-4" d="m421.62,23.65s-.03-.06-.05-.1c-.05.12-.09.25-.14.38.36-.03.27-.15.19-.27Z"/>
      </g>
    </g>
    <g class="cls-1">
      <g>
        <path class="cls-4" d="m431.21,25.1s-.04-.08-.06-.12c-.02.05-.07.12-.15.22-.04.08.09-.02.21-.1Z"/>
        <path class="cls-4" d="m431.11,24.87s0-.02,0-.02c-.02,0-.04.02-.06.03.03,0,.05,0,.07,0Z"/>
        <path class="cls-4" d="m430.82,24.82c0,.06.04.07.1.07.02-.06,0-.09-.1-.07Z"/>
        <path class="cls-4" d="m430.81,25.07c.07-.08.15-.16.23-.2,0,0,0,0,0,0-.04,0-.08.01-.12.01-.02.05-.06.11-.11.18Z"/>
        <path class="cls-4" d="m430.81,25.07c-.07.08-.13.16-.17.2.06-.07.12-.14.17-.2Z"/>
        <path class="cls-4" d="m428.86,26.71c-.08.04.47-.43.32-.36-.22.06-.52.2-.59.13-.15.07.4-.51.25-.43-.22.06-1.12.49-.99.58.24.11.48.09.72.16.33-.06.7-.17,1.01-.21.06.01.05.09.04.15.04-.12.09-.24.12-.36.09-.2-.68.33-.89.33Z"/>
        <path class="cls-4" d="m431.51,26.09c-.08.04-.23.11-.23.11.32-.42.1-.36-.12-.3-.08.09-.16.18-.24.27.07.02.23-.11.31-.25-.25.38-.22.51-.09.55.14-.13.31-.28.37-.37Z"/>
        <path class="cls-4" d="m431.23,26.48s-.06,0-.09-.01c-.02.01-.03.03-.05.04.04,0,.08-.01.12-.02,0,0,0,0,.01-.01Z"/>
        <path class="cls-4" d="m430.02,24.91c-.22-.2-.37-.43-.5-.68-.12.08-.25.17-.21.1.08-.1.13-.17.15-.22-.02-.04-.03-.08-.05-.11-.02,0-.05,0-.07,0,0,0,0,0,0,0-.08.04-.16.12-.23.2-.05.06-.11.13-.17.2.04-.05.1-.12.17-.2.06-.07.1-.14.11-.18-.06,0-.1,0-.1-.07.09-.02.12,0,.1.07.04,0,.08,0,.12-.01.02-.01.04-.02.06-.03-.04-.09-.07-.18-.1-.27-.03,0-.05,0-.08,0-.12.01-.23.03,0-.23,0-.02-.01-.03-.02-.05-.01.02-.03.03-.04.05.01-.02.03-.04.04-.06-.02-.07-.04-.14-.06-.21-.13.06-.29.13-.4.17,0,0,.16-.18.24-.27-.15.1-.25.16-.32.18-.14.17-.29.35-.38.47-.24.27.61-.4.14.09.47-.49-.38.18-.14-.09.09-.12.25-.3.38-.47-.14.04-.1-.11.12-.39.28-.14.11.11-.12.39.07-.02.17-.08.32-.18-.08.09-.24.27-.24.27.11-.03.27-.11.4-.17-.04-.14-.08-.28-.13-.43-.24-.97-.84-1.53-1.19-2.44-.17-.51-.26-1.07-.25-1.7.01-1.26-1.27-1.26-.53-3.17.24-.69-.46-.97-.75-1.18-1.21.44-3.37,2.66-3.49,2.79-1.79,1.95-.54,1.16-1.32,2.62.4-.88,1.47-.9.36.58-1.71,2.22.46,1.36.38,2.33-.02.24.19.3.28.48-.01,1.4,1.5,1.36,2.06,2.33.2.21.87-.03,1.3-.09.21.05.07.43.17.54.16.17.47.15.84.08-.24-.07-.48-.06-.72-.16-.14-.09.77-.53.99-.58.15-.07-.4.51-.25.43.06.07.37-.07.59-.13.15-.07-.39.4-.32.36.22,0,.98-.53.89-.33-.04.12-.08.24-.12.36,0,.05,0,.1.04.12.06-.02.12-.04.19-.06.15-.16.35-.34.55-.53,0,.05-.09.2-.1.25,0-.05.09-.2.1-.25-.2.18-.4.37-.55.53.44-.14.87-.23,1.23-.28.01-.01.03-.03.05-.04-.13-.04-.16-.17.09-.55-.08.14-.24.27-.31.25.08-.09.16-.18.24-.27.22-.06.44-.11.12.3,0,0,.15-.07.23-.11-.05.09-.22.24-.36.37.02,0,.06.01.09.01.24-.27.48-.69.48-.69Z"/>
        <path class="cls-4" d="m429.24,23.99s.05,0,.08,0c-.03-.08-.05-.16-.08-.23-.24.26-.12.25,0,.23Z"/>
      </g>
    </g>
    <g class="cls-1">
      <g>
        <path class="cls-4" d="m439.2,3.88c-.04.09-.08.18-.12.27.06-.03.15-.05.29-.06.1-.04-.05-.11-.17-.2Z"/>
        <path class="cls-4" d="m438.97,4.39s-.02.03-.02.05c.02.02.03.04.05.06-.01-.04-.02-.07-.03-.11Z"/>
        <path class="cls-4" d="m439,4.92c.06-.07.07-.16.05-.25-.07.05-.1.13-.05.25Z"/>
        <path class="cls-4" d="m439.28,4.59c-.11,0-.22-.02-.29-.09,0,0,0,0,0,0,.02.06.04.12.05.17.06-.04.14-.07.24-.08Z"/>
        <path class="cls-4" d="m439.28,4.59c.11,0,.21-.02.28-.01-.1,0-.19,0-.28.01Z"/>
        <path class="cls-4" d="m441.68,5.45c.06.07-.62-.15-.5,0,.12.28.38.57.31.78.13.14-.68.06-.56.2.12.28.88,1.14.94.79.05-.54-.03-.93-.02-1.43-.16-.46-.38-.91-.52-1.37,0-.12.08-.2.16-.29-.15.1-.29.2-.44.32-.25.14.56.64.63,1Z"/>
        <path class="cls-4" d="m440.24,1.97c.06.07.19.21.19.21-.56.06-.44.35-.31.63.12,0,.25,0,.37,0,0-.14-.19-.21-.37-.15.5-.13.64-.36.65-.64-.19-.04-.41-.11-.52-.07Z"/>
        <path class="cls-4" d="m440.75,1.87c0,.06.01.11.01.17.02,0,.04,0,.06.01-.02-.06-.04-.12-.05-.18,0,0-.01,0-.02,0Z"/>
        <path class="cls-4" d="m439.32,6.14c-.17.65-.38,1.24-.63,1.81.12.09.27.17.17.2-.13,0-.22.03-.29.06-.04.08-.08.16-.11.25,0,.03.02.07.03.11,0,0,0,0,0,0,.06.07.17.09.28.09.08-.01.18-.02.28-.01-.06,0-.17.01-.28.01-.1.01-.18.04-.24.08.02.09.02.18-.05.25-.05-.12-.03-.2.05-.25-.01-.06-.03-.12-.05-.17-.02-.02-.03-.04-.05-.06-.09.19-.18.37-.28.56,0,.05,0,.1.02.14.05.17.1.34-.26.32-.02.03-.03.07-.05.1.02,0,.04,0,.07,0-.03,0-.05.02-.08.02-.07.14-.15.28-.22.42.1.14.23.28.3.41,0,0-.25,0-.37,0,.16.09.26.18.29.27.23-.02.48-.02.64-.05.37,0-.62-.43.06-.35-.69-.08.31.36-.06.35-.16.02-.41.03-.64.05.08.18-.1.32-.48.36-.24-.27.09-.34.48-.36-.04-.08-.13-.18-.29-.27.12,0,.37,0,.37,0-.07-.13-.2-.28-.3-.41-.15.27-.3.55-.45.83-1.02,1.79-1.49,3.59-2.42,5.48-.53,1.02-1.14,1.97-1.85,2.86-1.42,1.79-1.06,3.92-3.43,5.44-.85.6-.96,2.16-1.12,2.94.83,1.37,3.95,1.74,4.13,1.74,2.71.14,1.46-.77,3.33-1.6-1.11.61-1.43-1.13.55-1.43,2.99-.38,1.4-2.72,2.52-3.97.28-.31.28-.74.46-1.16,1.58-1.99,1.11-4.44,2.04-6.76.18-.63-.28-1.38-.47-2.02,0-.42.46-.74.56-1.05.15-.5.03-1-.14-1.5-.01.5.07.89.02,1.43-.06.35-.81-.51-.94-.79-.12-.14.69-.06.56-.21.06-.21-.19-.5-.31-.78-.12-.14.56.08.5,0-.06-.35-.87-.86-.63-1,.15-.12.29-.22.44-.32.06-.07.12-.14.12-.24-.04-.07-.08-.15-.12-.22-.22-.02-.49-.08-.75-.15.06-.07.25-.14.31-.21-.06.07-.25.14-.31.21.26.06.53.13.75.15-.28-.53-.5-1.1-.67-1.63-.02,0-.04,0-.06-.01,0,.27-.15.5-.64.64.19-.07.37,0,.37.15-.12,0-.25,0-.37,0-.12-.28-.25-.57.31-.63,0,0-.12-.14-.19-.21.12-.04.33.03.52.07,0-.05,0-.11,0-.17-.37,0-.92.2-.92.2Z"/>
        <path class="cls-4" d="m438.51,8.73s-.01-.09-.02-.14c-.08.15-.16.31-.24.46.36.01.31-.15.26-.32Z"/>
      </g>
    </g>
    <g class="cls-1">
      <g>
        <path class="cls-4" d="m448.51,24.72c-.01-.09-.02-.18-.03-.27-.04.06-.1.12-.21.2-.07.08.1.07.25.08Z"/>
        <path class="cls-4" d="m448.45,24.19s0-.03,0-.05c-.02,0-.05-.02-.07-.02.03.02.06.05.08.07Z"/>
        <path class="cls-4" d="m448.15,23.78c-.02.09.03.16.09.23.04-.08.02-.16-.09-.23Z"/>
        <path class="cls-4" d="m448.08,24.19c.1-.06.2-.1.29-.07,0,0,0,0,0,0-.04-.04-.09-.07-.13-.11-.03.06-.08.12-.16.18Z"/>
        <path class="cls-4" d="m448.08,24.19c-.09.05-.18.12-.23.15.09-.05.16-.1.23-.15Z"/>
        <path class="cls-4" d="m445.59,24.71c-.09-.03.61-.2.43-.25-.25-.16-.61-.27-.67-.47-.18-.05.55-.4.38-.45-.25-.16-1.33-.47-1.21-.16.23.46.5.73.74,1.13.37.28.79.54,1.14.84.06.09.03.2,0,.31.08-.15.15-.31.21-.48.14-.24-.81-.23-1.04-.48Z"/>
        <path class="cls-4" d="m448.6,26.77c-.09-.03-.27-.08-.27-.08.45-.34.2-.5-.06-.66-.11.06-.22.12-.32.19.07.11.27.08.39-.07-.36.36-.36.61-.23.84.19-.06.4-.12.48-.21Z"/>
        <path class="cls-4" d="m448.21,27.11s-.07-.08-.09-.13c-.02,0-.04.01-.06.02.05.04.09.08.14.12,0,0,.01,0,.02,0Z"/>
        <path class="cls-4" d="m447.26,22.97c-.19-.6-.3-1.19-.38-1.77-.15,0-.31,0-.25-.08.11-.08.17-.14.21-.2-.01-.09-.02-.17-.03-.26-.02-.02-.05-.05-.08-.07,0,0,0,0,0,0-.09-.03-.19.02-.29.07-.07.05-.14.1-.23.15.05-.03.14-.1.23-.15.08-.06.14-.12.16-.18-.06-.06-.11-.14-.09-.23.11.07.13.15.09.23.04.04.09.08.13.11.03,0,.05.02.07.02-.02-.2-.03-.39-.05-.59-.03-.04-.06-.08-.09-.1-.13-.11-.26-.22.06-.39,0-.03,0-.07,0-.11-.02.01-.04.02-.06.04.02-.02.04-.04.06-.05,0-.15-.01-.3-.02-.45-.16-.06-.34-.11-.47-.18,0,0,.22-.12.32-.19-.18,0-.31-.02-.39-.07-.19.13-.4.26-.53.36-.32.19.75.03.13.31.63-.28-.45-.13-.13-.31.13-.1.34-.23.53-.36-.16-.1-.08-.31.22-.54.34.1.09.32-.22.54.08.05.2.07.39.07-.11.06-.32.19-.32.19.12.07.31.12.47.18-.01-.29-.03-.59-.04-.89-.04-1.95-.56-3.63-.73-5.62-.07-1.09-.03-2.16.13-3.24.31-2.15-1.09-3.68.16-6.1.42-.91-.28-2.22-.54-2.93-1.41-.67-4.27.61-4.43.7-2.39,1.26-.86,1.36-2.03,2.97.63-1.05,1.8.18.26,1.42-2.36,1.83.19,2.89-.13,4.46-.08.39.14.73.19,1.17-.34,2.4,1.31,4.12,1.7,6.45.17.6.95.96,1.44,1.38.22.34-.02.83.06,1.13.13.47.48.82.89,1.13-.24-.4-.51-.67-.74-1.13-.13-.31.95,0,1.21.16.18.05-.56.4-.37.45.05.2.41.3.67.47.18.05-.52.22-.43.25.23.25,1.19.24,1.05.48-.07.17-.14.33-.21.48-.02.09-.03.18.02.25.07.04.14.08.22.11.2-.1.46-.18.72-.26-.02.09-.14.24-.16.32.02-.09.14-.24.16-.32-.26.08-.52.17-.72.26.51.28.99.63,1.4.96.02,0,.04-.01.06-.02-.13-.22-.13-.48.23-.84-.13.15-.32.19-.4.07.11-.06.22-.12.32-.19.25.16.51.33.06.66,0,0,.18.05.27.08-.08.09-.3.15-.48.21.03.04.06.09.09.13.32-.19.68-.63.68-.63Z"/>
        <path class="cls-4" d="m446.63,20.47s.06.06.09.1c-.01-.16-.02-.33-.03-.5-.32.17-.19.28-.06.39Z"/>
      </g>
    </g>
    <g class="cls-1">
      <g>
        <path class="cls-4" d="m450.43,12.91c-.02.05-.05.1-.07.16.06-.02.14-.03.27-.03.09-.02-.06-.07-.2-.13Z"/>
        <path class="cls-4" d="m450.29,13.21s-.01.02-.01.03c.02.01.04.03.06.04-.02-.02-.03-.04-.04-.07Z"/>
        <path class="cls-4" d="m450.41,13.54c.05-.04.04-.1,0-.15-.06.03-.07.08,0,.15Z"/>
        <path class="cls-4" d="m450.63,13.35c-.11,0-.22-.02-.29-.07,0,0,0,0,0,0,.03.04.06.07.08.11.05-.02.12-.03.22-.04Z"/>
        <path class="cls-4" d="m450.63,13.35c.1,0,.21,0,.27,0-.1,0-.19,0-.27,0Z"/>
        <path class="cls-4" d="m453.1,13.95c.07.05-.63-.11-.49-.02.17.18.46.36.43.49.15.09-.65.01-.51.1.17.18,1.04.72,1.04.51-.04-.33-.19-.57-.26-.87-.24-.28-.53-.57-.73-.85-.02-.07.05-.12.11-.17-.13.05-.25.11-.37.18-.22.08.65.41.77.63Z"/>
        <path class="cls-4" d="m451.12,11.79c.07.05.22.14.22.14-.53.02-.36.2-.2.37.12,0,.24.01.36.02-.02-.09-.22-.14-.39-.1.46-.06.56-.2.52-.37-.19-.03-.41-.08-.52-.06Z"/>
        <path class="cls-4" d="m451.6,11.75s.03.07.04.1c.02,0,.04,0,.06,0-.03-.04-.06-.07-.08-.11,0,0-.01,0-.02,0Z"/>
        <path class="cls-4" d="m450.93,14.29c-.05.39-.16.74-.31,1.08.13.06.29.11.2.13-.13,0-.21.01-.27.03-.02.05-.05.1-.07.15.01.02.03.04.04.07,0,0,0,0,0,0,.07.05.18.06.29.07.08,0,.17,0,.27,0-.06,0-.16,0-.27,0-.09,0-.17.02-.22.04.03.06.05.11,0,.15-.07-.07-.06-.12,0-.15-.02-.04-.05-.07-.08-.11-.02-.01-.04-.03-.06-.04-.06.11-.11.22-.18.33.01.03.02.06.04.09.08.1.15.21-.2.19-.01.02-.02.04-.04.06.02,0,.04,0,.07,0-.02,0-.05,0-.07,0-.05.08-.1.16-.15.25.12.09.27.18.36.26,0,0-.24-.01-.36-.02.17.06.28.12.33.17.22,0,.46,0,.62,0,.36.02-.68-.28,0-.21-.68-.07.36.23,0,.21-.15,0-.39,0-.62,0,.11.11-.04.19-.4.21-.27-.17.03-.2.4-.21-.05-.05-.16-.11-.33-.17.12,0,.36.02.36.02-.09-.08-.24-.18-.36-.26-.1.16-.2.32-.29.49-.69,1.05-.84,2.13-1.43,3.25-.34.6-.78,1.16-1.32,1.68-1.08,1.04-.37,2.34-2.41,3.19-.72.34-.57,1.28-.6,1.75,1.04.86,4.13,1.19,4.3,1.2,2.65.18,1.29-.42,2.96-.86-.97.33-1.58-.74.29-.85,2.84-.13.91-1.6,1.78-2.33.22-.18.15-.44.26-.69,1.2-1.16.34-2.66.85-4.03.07-.38-.51-.85-.8-1.24-.07-.26.33-.43.37-.62.06-.3-.13-.61-.39-.92.07.3.22.54.26.87,0,.21-.87-.33-1.04-.51-.15-.09.66-.01.51-.11.03-.13-.27-.31-.44-.48-.14-.09.56.07.49.02-.12-.22-.99-.55-.78-.63.12-.07.25-.12.37-.18.05-.04.09-.08.07-.14-.05-.05-.1-.09-.16-.14-.22-.02-.49-.07-.75-.11.05-.04.22-.07.27-.11-.05.04-.22.07-.27.11.27.05.53.09.75.11-.36-.33-.67-.69-.92-1.01-.02,0-.04,0-.06,0,.04.17-.06.3-.52.37.17-.03.36.02.39.1-.12,0-.24-.01-.36-.02-.17-.18-.34-.35.2-.37,0,0-.15-.09-.22-.14.11-.02.33.03.52.06,0-.03-.02-.07-.04-.1-.36-.01-.86.09-.86.09Z"/>
        <path class="cls-4" d="m450.57,15.84s-.03-.05-.04-.08c-.05.09-.1.18-.16.27.35.02.28-.08.2-.19Z"/>
      </g>
    </g>
    <g class="cls-1">
      <g>
        <path class="cls-4" d="m465.61,29.87c-.04-.08-.07-.16-.1-.24-.02.06-.07.14-.15.25-.04.09.11.03.26,0Z"/>
        <path class="cls-4" d="m465.41,29.4s-.01-.03-.02-.04c-.03,0-.05,0-.08,0,.03.01.07.03.09.04Z"/>
        <path class="cls-4" d="m465.02,29.11c0,.09.07.14.15.18.01-.08-.03-.15-.15-.18Z"/>
        <path class="cls-4" d="m465.05,29.51c.08-.08.17-.15.26-.15,0,0,0,0,0,0-.05-.02-.11-.04-.15-.07-.01.06-.05.14-.11.22Z"/>
        <path class="cls-4" d="m465.05,29.51c-.07.08-.14.16-.18.21.07-.07.13-.14.18-.21Z"/>
        <path class="cls-4" d="m462.82,30.73c-.09,0,.53-.36.34-.36-.28-.08-.65-.06-.76-.23-.19,0,.42-.53.24-.52-.28-.08-1.39-.04-1.19.21.34.36.67.52,1.01.83.43.15.9.26,1.31.43.08.07.08.18.09.28.03-.16.06-.33.08-.5.07-.26-.83.03-1.12-.14Z"/>
        <path class="cls-4" d="m466.23,31.74c-.09,0-.28,0-.28,0,.34-.44.05-.52-.23-.6-.09.09-.17.18-.26.27.1.08.28,0,.36-.18-.25.44-.18.67,0,.84.16-.11.35-.23.4-.34Z"/>
        <path class="cls-4" d="m465.95,32.16s-.09-.06-.12-.09c-.02.01-.03.02-.05.04.06.02.11.04.16.07,0,0,0,0,.01-.01Z"/>
        <path class="cls-4" d="m463.95,28.63c-.34-.5-.6-1.01-.83-1.52-.14.04-.3.1-.25,0,.08-.1.13-.18.15-.24-.03-.08-.06-.15-.09-.23-.03-.02-.06-.03-.09-.04,0,0,0,0,0,0-.09,0-.18.07-.26.15-.05.07-.11.14-.18.21.04-.04.1-.13.18-.21.06-.08.1-.15.11-.22-.08-.04-.14-.09-.14-.18.12.03.16.1.14.18.05.03.1.04.16.07.03,0,.05,0,.08,0-.07-.17-.13-.35-.2-.53-.04-.03-.07-.05-.11-.07-.15-.06-.3-.13-.05-.38-.01-.03-.02-.06-.03-.1-.02.02-.03.03-.05.05.01-.02.02-.05.04-.07-.05-.13-.09-.27-.14-.41-.16,0-.36,0-.49-.03,0,0,.17-.18.26-.27-.17.06-.3.08-.39.05-.15.18-.31.36-.41.49-.26.27.73-.2.2.25.52-.45-.46.02-.2-.25.09-.13.26-.31.41-.49-.18-.05-.16-.26.07-.56.35-.01.17.26-.07.56.08.02.21,0,.39-.05-.09.09-.26.27-.26.27.14.03.33.02.49.03-.09-.27-.18-.53-.27-.81-.55-1.79-1.49-3.18-2.17-4.96-.35-.98-.6-1.98-.73-3.02-.28-2.07-2.01-3.07-1.46-5.67.16-.97-.85-1.97-1.29-2.54-1.52-.2-3.9,1.83-4.03,1.96-1.95,1.87-.46,1.51-1.16,3.34.33-1.16,1.76-.36.62,1.23-1.77,2.38.94,2.61,1.05,4.15.03.39.32.64.49,1.02.31,2.31,2.33,3.41,3.32,5.44.32.51,1.16.61,1.73.85.3.25.2.77.35,1.02.25.4.67.61,1.14.78-.34-.3-.67-.47-1.01-.83-.2-.25.91-.29,1.19-.21.18,0-.42.53-.24.52.1.17.47.16.76.23.18,0-.44.36-.35.36.29.16,1.2-.13,1.12.14-.02.18-.05.34-.08.5,0,.09.02.17.09.23.08.01.16.03.24.04.17-.15.39-.3.61-.46,0,.09-.07.26-.07.35,0-.09.07-.26.07-.35-.22.15-.45.31-.61.46.56.11,1.11.29,1.59.47.02-.01.03-.03.05-.04-.19-.17-.25-.4,0-.84-.08.17-.26.27-.36.18.09-.09.17-.18.26-.27.28.08.57.15.23.59,0,0,.19,0,.28,0-.05.11-.25.22-.4.34.04.03.08.06.12.09.25-.27.49-.78.49-.78Z"/>
        <path class="cls-4" d="m462.7,26.52s.07.04.11.07c-.05-.15-.11-.3-.16-.45-.26.25-.1.32.05.38Z"/>
      </g>
    </g>
    <g class="cls-1">
      <g>
        <path class="cls-4" d="m468.86,68.46c.58.48,1.17.94,1.7,1.47-.18-.37-.29-.83-.36-1.39-.24-.52-.77-.25-1.35-.08Z"/>
        <path class="cls-4" d="m472.04,71.4c.09.1.18.2.27.29.14.03.27.06.4.08-.23-.12-.45-.24-.67-.37Z"/>
        <path class="cls-4" d="m475.19,73.82c-.33-.64-.88-1.06-1.42-1.43.25.55.72,1,1.42,1.43Z"/>
        <path class="cls-4" d="m473.45,71.09c-.07.43-.25.77-.73.69,0,0,0,0-.02,0,.37.18.72.38,1.06.62-.19-.41-.28-.86-.32-1.3Z"/>
        <path class="cls-4" d="m473.45,71.09c.07-.41,0-.91.05-1.15-.05.39-.07.77-.05,1.15Z"/>
        <path class="cls-4" d="m480.28,65.94c.54.19-1.28,1.75-.24,2.08,2,1.23,4.11,2.18,5.33,4.05.5.28.41,1.12.29,1.93-.15.82-.31,1.62.16,1.91.84.82,2.62,2.22,3.93,3.15,1.33.91,2.31,1.25,1.53-.42-1.21-2.48-2.53-4.37-3.87-6.13-1.41-1.75-2.83-3.37-4.59-5.08-3.31-2.41-6.82-4.06-10.45-5.47-.96-.48-1.67-1.21-2.48-1.82.49.47.95.98,1.42,1.51.47.53.96,1.04,1.43,1.63.58.83,1.77.96,3.18,1.19.72.1,1.48.22,2.23.45.75.23,1.52.52,2.15,1.02Z"/>
        <path class="cls-4" d="m453.78,61.45c.41-.24,1.28-.7,1.28-.7.84.91,1.67,1.37,2.59,1.47.91.17,1.91.03,2.92.02-.15-.46-.31-.95-.5-1.4-1.16-.14-1.41.48-.6,1.22-1.79-2.02-4.11-2.54-6.36-2.37.12.65.08,1.4.66,1.74Z"/>
        <path class="cls-4" d="m451.79,59.89c.44-.07.89-.13,1.32-.18,0-.07-.03-.14-.04-.21-.45.11-.89.22-1.33.33l.05.06Z"/>
        <path class="cls-4" d="m481.75,79.9c2.57,5.02,3.76,10.34,4.01,15.5.51.35,1.06.59.82,1.16-.39.44-.62.86-.77,1.27-.02.75-.05,1.51-.07,2.25.05.26.11.53.18.8,0,0,0,.02.01.02.27.43.64.31,1,.05.26-.29.56-.57.88-.81-.2.15-.53.55-.88.81-.31.36-.56.75-.7,1.21.11.7.16,1.43-.02,2.17-.24-.85-.19-1.56.02-2.17-.09-.44-.2-.86-.31-1.29-.07-.12-.14-.24-.21-.37-.12,1.72-.3,3.41-.61,5.09.02.4.05.77.09,1.09.16,1.26.3,2.56-.99,3.11-.08.29-.15.59-.23.88.08-.04.15-.09.24-.13-.09.12-.19.22-.29.29-.34,1.23-.74,2.45-1.17,3.65.22.91.52,1.9.58,2.83,0,0-.94.29-1.41.44.46.52.65,1.13.64,1.75.91-.4,1.89-.75,2.55-1.19.72-.24.3-.92,0-1.56-.29-.64-.48-1.24.76-1.45-1.24.22-1.05.81-.76,1.45.3.64.72,1.32,0,1.56-.66.44-1.64.79-2.55,1.19-.04,1.3-1.08,2.64-2.68,3.23-.24-1.82,1.13-2.56,2.68-3.23.01-.63-.18-1.23-.64-1.75.47-.14,1.41-.44,1.41-.44-.06-.93-.36-1.92-.58-2.83-.85,2.34-1.86,4.63-3.09,6.81-2.01,3.5-4.39,6.55-7.14,9.02-2.73,2.52-5.94,4.45-9.32,5.91-3.4,1.42-7.06,2.26-10.76,2.42-3.71.11-7.4-.42-10.92-1.87-7.63-3.14-13.25-9.7-15.65-16.57-.58-1.71-1.11-3.41-1.56-5.1-.44-1.7-.79-3.4-1.07-5.11-.54-3.42-.73-6.91-.34-10.37.37-3.46,1.32-6.86,2.99-9.94,1.67-3.05,4.1-5.73,7.12-7.35,1.12-.65,2.23-1.5,3.36-2.38,1.13-.9,2.25-1.76,3.45-2.61,2.37-1.72,4.92-3,6.69-3.49.98-1.22,1.65-2.69,2.09-4.25.43-1.56.6-3.26.51-4.83-.12-3.14-1.52-5.79-1.8-6.06-1.59-2.05-3.29-3.18-5-3.67-1.72-.5-3.46-.41-5.32,0-1.87.41-3.87,1.1-6.25,1.96-2.47.9-5.3,1.94-8.69,3.18,2.33-1,3.37-.8,3.43-.15.07.67-.79,1.83-2.13,3.23-1.34,1.4-3.14,3.03-5.16,4.64-2.02,1.6-4.27,3.18-6.7,4.32-3.64,1.58-6.46,4.46-8.45,7.98-1.99,3.52-3.12,7.68-3.6,12-.49,4.32-.34,8.77.11,13.13.45,4.37,1.14,8.65,1.73,12.94.62,4.32,2.68,8.54,5.18,13.23,5.66,12.68,17.32,21.99,31.27,25.22,3.47.81,7.16,1.16,10.72,1.16,3.59.01,7.13-.45,10.59-1.19,3.47-.74,6.86-1.83,10.15-3.26,3.29-1.43,6.52-3.13,9.61-5.23,3.22-2.31,5.65-5.32,7.43-8.45,1.84-3.16,2.86-6.31,3.81-9.24,1.78-4.01,4.48-7.85,5.45-11.19,1.48-5.2,1.34-9.86.64-14.2.01,2.39.05,4.49-.09,6.65-.1,2.17-.33,4.39-.91,7.09-.46,1.79-.99.93-1.45-.62-.45-1.56-.93-3.77-1.04-4.94-.32-1.03,2.55-2.07,2.19-3.16.3-2.15-.53-4.24-1.1-6.53-.49-.99,1.92-.78,1.67-1.29-.12-.8-.41-1.55-.75-2.25-.36-.7-.8-1.35-1.19-1.94-.79-1.2-1.49-2.21-1.23-3.21.21-1.5.41-2.89.55-4.27.02-.85-.08-1.7-.34-2.56-.3-.5-.64-1.01-.98-1.52-.6.62-1.44.98-2.28,1.33-.08-.78.2-2.01.08-2.81.13.8-.15,2.02-.08,2.81.84-.35,1.68-.71,2.28-1.33-1.15-1.82-2.49-3.69-3.84-5.49-1.41-1.78-2.84-3.51-4.33-5.03-.05.05-.11.1-.16.15,1.43,1.94,2.22,4.26,1.7,7.02.14-1.16.8-1.3,1.35-.2-.27.43-.54.85-.82,1.26-1.33-1.76-2.68-3.25-2.03-5.77,0,0-.22-.14-.49-.31-.28-.16-.62-.35-.85-.48-.03-.73.64-1.08,1.13-1.52-.26-.39-.56-.76-.89-1.11-.22.73-.32,1.96-.37,2.97-.02.5-.04.96-.06,1.3-.01.33-.02.54-.02.54Z"/>
        <path class="cls-4" d="m486.14,102.2c-.07-.31-.12-.68-.17-1.08-.05.72-.14,1.44-.24,2.15-.08.72-.19,1.43-.33,2.14,1.25-.65,1-1.96.74-3.21Z"/>
      </g>
    </g>
    <g class="cls-1">
      <g>
        <path class="cls-4" d="m553.25,143.27c-.43,0-.87-.01-1.3-.02.23.15.46.4.72.8.3.25.41-.29.58-.78Z"/>
        <path class="cls-4" d="m550.75,143.22c-.08,0-.16,0-.23,0-.06.07-.12.15-.18.23.13-.09.27-.16.41-.22Z"/>
        <path class="cls-4" d="m548.55,144c.41.1.78,0,1.14-.19-.34-.15-.71-.13-1.14.19Z"/>
        <path class="cls-4" d="m550.38,144.45c-.17-.34-.26-.71-.06-1,0,0,0,0,0,0-.21.13-.43.27-.65.38.25.12.49.34.7.63Z"/>
        <path class="cls-4" d="m550.38,144.45c.16.33.4.64.49.83-.15-.31-.31-.59-.49-.83Z"/>
        <path class="cls-4" d="m550.48,152.94c-.21.28-.34-2.11-.75-1.54-1,.75-1.81,1.9-2.8,1.98-.41.57-1.32-2.03-1.73-1.46-1,.76-3.44,4.18-1.86,3.91,2.36-.54,3.86-1.31,5.96-1.92,1.66-1.1,3.24-2.37,4.95-3.38.49-.15.97,0,1.45.12-.64-.32-1.3-.64-2.02-.94-.97-.59-1.83,2.57-3.22,3.22Z"/>
        <path class="cls-4" d="m562.86,143.97c-.2.28-.61.86-.61.86-1.14-1.64-2.13-.89-3.13-.13.19.38.37.77.56,1.16.59-.18.61-.86.03-1.34,1.34,1.36,2.51,1.49,3.68,1.15-.13-.64-.17-1.39-.53-1.7Z"/>
        <path class="cls-4" d="m564.07,145.41c-.23.1-.45.18-.68.25.01.07.03.13.04.2.22-.14.45-.27.67-.4l-.03-.06Z"/>
        <path class="cls-4" d="m543.96,146.57c-.74.08-1.48.15-2.21.21-.72.06-1.38.1-2.06.13-1.35.06-2.65.07-3.89.05-.34.5-.68,1.07-.86.8-.06-.41-.16-.67-.29-.84-.35-.01-.7-.03-1.05-.04-.16.07-.32.15-.48.23,0,0-.01,0-.02.01-.35.3-.49.68-.53,1.04.03.24.04.52.02.83.01-.2-.05-.5-.02-.83-.03-.3-.11-.54-.27-.66-.43.18-.86.31-1.15.18.6-.33.94-.36,1.15-.18.27-.12.55-.26.81-.39.1-.08.19-.16.29-.24-.79-.05-1.54-.08-2.27-.19-.23.07-.45.13-.65.2-.82.33-1.73.55-1.11-.77-.12-.07-.23-.13-.34-.23-.04.08-.07.16-.11.25,0-.1.02-.2.05-.3-.46-.35-.82-.87-1-1.49-.62.09-1.3.2-1.72.06,0,0,.74-.96,1.12-1.41-.04.02-.08.04-.12.06-.55.28-.93.33-1.13.2-.49.63-1.05,1.34-1.34,1.82-.13.24-.26.45-.35.64-.43.64.12.5.56.44.44-.06.78-.04.1,1,.67-1.04.34-1.06-.1-1-.44.06-.98.2-.56-.44.09-.19.22-.4.35-.64.29-.48.85-1.19,1.34-1.82-.45-.28-.02-1.46,1.14-2.78,1.02.07.03,1.25-1.14,2.78.2.13.58.08,1.13-.2.04-.01.08-.04.12-.06-.38.45-1.12,1.41-1.12,1.41.42.14,1.1.03,1.72-.06-.17-.55-.2-1.16-.16-1.75.04-.71.16-1.4.27-2.07.37-2.07.64-3.86.84-5.56.09-.82.17-1.64.26-2.46l.2-3.21c.25-4.37.44-8.78.99-13.45.67-5.06,1.68-9.93,3.07-14.7,2.76-9.52-.49-18.18,5.53-27.81,2.11-3.7.93-10.53.67-14.09-4-4.75-14.29-2.24-14.87-2.01-8.77,2.96-3.88,5.23-9.02,11.22,2.91-4.07,5.66,2.98-.34,6.84-9.14,5.59-1.78,13.48-4.1,20.33-.58,1.71-.16,3.53-.33,5.58-1.54,5.31-1.33,10.43-.81,15.61.26,2.59.59,5.2.81,7.86.11,1.33.2,2.67.24,4.03.02.68.03,1.36.02,2.05-.02.82-.05,1.64-.07,2.47.02,2.83.6,5.42,1.32,7.63.68,2.23,1.66,4.05,2.61,5.58.66,1.83.74,3.91,1.24,5.6.2.64.45,1.23.79,1.71.98,1.38,2.49,2.43,3.98,2.88,1.5.47,3.01.49,4.54.3-1.5-.12-2.81-.3-4.15-.76-1.33-.44-2.73-1.28-3.89-2.56-1.33-1.79,3.04-.67,4.73-.53.81-.08-.05,2.47.85,2.29,1.19.53,2.92-.13,4.58-.6.84-.44-.46,1.84-.02,1.64,1.1-.12,2.42-.96,3.5-1.71,1.09-.75,1.95-1.4,2.45-1.09.86.33,1.64.63,2.4.93.53.09,1.07.16,1.67.01.38-.23.77-.46,1.16-.7-.24-.72-.26-1.62-.26-2.52.45.1,1.09.58,1.58.67-.49-.09-1.14-.58-1.58-.67,0,.91.02,1.81.26,2.52.65-.39,1.33-.78,2.01-1.19.32-.19.65-.38.97-.57l.74-.53c.98-.7,1.99-1.36,2.96-1.95-.01-.07-.03-.14-.04-.21-1.16.34-2.33.21-3.68-1.15.57.49.56,1.16-.03,1.34-.19-.39-.39-.77-.58-1.16,1.04-.76,2.01-1.52,3.15.13,0,0,.41-.57.61-.86.36.3.4,1.06.52,1.69.23-.06.45-.15.68-.24-.59-1.15-2.26-2.56-2.26-2.56Z"/>
        <path class="cls-4" d="m532.32,147.42c.2-.09.41-.16.64-.24-.66-.06-1.3-.1-1.93-.2-.4,1.22.49.83,1.29.44Z"/>
      </g>
    </g>
    <g class="cls-1">
      <g>
        <path class="cls-4" d="m602.62,152.76c.04-.35.1-.7.15-1.06-.18.17-.45.34-.87.51-.28.22.25.36.72.54Z"/>
        <path class="cls-4" d="m602.92,150.73c.01-.06.02-.13.03-.19-.07-.06-.14-.12-.21-.17.07.12.13.24.18.35Z"/>
        <path class="cls-4" d="m602.35,148.87c-.14.32-.07.64.08.94.19-.26.2-.57-.08-.94Z"/>
        <path class="cls-4" d="m601.73,150.32c.36-.1.73-.15,1,.04,0,0,0,0,0,0-.11-.19-.22-.37-.31-.56-.14.2-.39.37-.7.51Z"/>
        <path class="cls-4" d="m601.73,150.32c-.35.1-.67.27-.87.32.32-.09.62-.2.87-.32Z"/>
        <path class="cls-4" d="m593.26,149.65c-.26-.19,2.14-.09,1.61-.47-.65-.88-1.71-1.64-1.7-2.45-.53-.38,2.15-.9,1.62-1.28-.65-.88-3.82-3.17-3.71-1.86.31,1.97.93,3.26,1.33,5.03.93,1.45,2.04,2.85,2.88,4.34.1.41-.09.79-.26,1.17.39-.49.77-1,1.13-1.56.68-.74-2.38-1.72-2.89-2.91Z"/>
        <path class="cls-4" d="m600.98,160.53c-.27-.19-.79-.57-.79-.57,1.75-.78,1.09-1.66.44-2.54-.4.12-.81.23-1.21.35.13.5.79.57,1.33.14-1.48.97-1.73,1.92-1.51,2.9.65-.05,1.4-.01,1.74-.28Z"/>
        <path class="cls-4" d="m599.42,161.39c-.07-.19-.14-.39-.18-.58-.07,0-.14.01-.21.02.11.19.23.39.33.58.02,0,.04-.01.06-.02Z"/>
        <path class="cls-4" d="m600.25,144.9c-.04-2.46.13-4.76.42-7.01-.46-.18-1-.32-.72-.55.42-.17.69-.34.87-.51.05-.33.1-.66.15-.98-.05-.12-.11-.23-.18-.35,0,0,0,0-.01,0-.27-.19-.64-.15-1-.04-.26.12-.56.23-.88.32.2-.06.53-.22.88-.32.31-.15.55-.32.69-.51-.14-.3-.22-.62-.07-.94.27.37.27.68.07.94.09.19.21.38.31.56.07.05.14.11.21.17.12-.75.26-1.49.4-2.24-.06-.17-.11-.34-.19-.48-.31-.55-.62-1.1.56-1.41.02-.13.05-.27.08-.4-.07.02-.13.05-.22.07.07-.06.15-.11.23-.15.11-.56.23-1.13.35-1.69-.44-.38-1-.77-1.33-1.16,0,0,.8-.24,1.21-.35-.6-.17-.99-.4-1.18-.66-.73.29-1.52.55-2.02.8-1.21.35,2.39.91.11,1.31,2.27-.4-1.32-.95-.11-1.31.5-.25,1.3-.51,2.02-.8-.42-.55.03-1.23,1.21-1.76,1,.72,0,1.28-1.21,1.76.19.26.59.49,1.18.66-.4.12-1.21.35-1.21.35.33.39.89.78,1.33,1.16.23-1.11.47-2.22.7-3.36,1.71-7.34,1.6-14.15,2.91-21.78.79-4.13,1.92-8.09,3.42-11.96,2.99-7.72-.06-14.91,6.19-22.63,2.2-2.97,1.18-8.6,1-11.52-3.89-4-14.23-2.22-14.82-2.05-8.83,2.19-4.01,4.18-9.28,8.94,3.01-3.26,5.59,2.59-.5,5.59-9.27,4.33-2.1,10.99-4.58,16.55-.62,1.39-.24,2.89-.47,4.56-3.33,8.62.36,16.79-.57,25.92-.03,2.42,2.14,4.61,3.31,6.68.38,1.5-.84,3.06-.86,4.28-.03,1.91.78,3.57,1.79,5.16-.4-1.77-1.01-3.06-1.32-5.03-.12-1.31,3.05.98,3.71,1.86.53.38-2.15.9-1.62,1.28-.02.8,1.04,1.57,1.7,2.45.53.38-1.87.28-1.61.47.52,1.19,3.57,2.17,2.9,2.91-.37.56-.75,1.07-1.13,1.56-.14.31-.25.63-.17.97.2.21.39.43.59.65.74-.15,1.64-.19,2.54-.23-.14.31-.68.73-.82,1.04.14-.31.68-.73.82-1.04-.91.04-1.8.08-2.54.23,1.37,1.58,2.6,3.4,3.59,5.09.07,0,.14-.01.21-.02-.22-.98.02-1.92,1.51-2.89-.54.42-1.21.35-1.33-.15.4-.12.81-.24,1.21-.35.65.88,1.31,1.76-.44,2.54,0,0,.53.38.79.57-.34.27-1.09.24-1.73.28.04.19.1.38.18.58,1.2-.38,2.77-1.61,2.77-1.61Z"/>
        <path class="cls-4" d="m600.55,134.91c.07.13.12.3.18.47.12-.63.24-1.25.37-1.88-1.17.31-.86.86-.55,1.41Z"/>
      </g>
    </g>
  </g>
</svg>